<mxfile host="app.diagrams.net" modified="2024-08-16T14:15:51.897Z" agent="Mozilla/5.0 (Macintosh; Intel Mac OS X 10_15_7) AppleWebKit/537.36 (KHTML, like Gecko) Chrome/127.0.0.0 Safari/537.36" version="24.4.14" etag="3p5USgQUf6TR6AtsxKhH" type="github">
  <diagram name="PÃ¡gina-1" id="kDZ3eYRyWbCw22fncYCP">
    <mxGraphModel>
      <root>
        <mxCell id="0" />
        <mxCell id="1" parent="0" />
      </root>
    </mxGraphModel>
  </diagram>
</mxfile>
